<?xml version="1.0" encoding="utf-8"?>
<!-- Generator: Adobe Illustrator 21.1.0, SVG Export Plug-In . SVG Version: 6.00 Build 0)  -->
<svg version="1.1" id="Layer_1" xmlns="http://www.w3.org/2000/svg" xmlns:xlink="http://www.w3.org/1999/xlink" x="0px" y="0px"
	 viewBox="0 0 100 125" style="enable-background:new 0 0 100 125;" xml:space="preserve">
<g>
	<path d="M80.8,16.5c-0.7-0.5-1.6-0.5-2.2,0.1L50.1,41c-0.7,0.6-0.8,1.7-0.2,2.4c0,0,8.5,10.7,11.4,14.3
		c-3.1,5.6-11.7,22.7-12.1,23.5c-0.4,0.8-0.2,1.7,0.5,2.2c0.3,0.2,0.7,0.4,1.1,0.4c0.4,0,0.8-0.1,1.2-0.4L80.2,59
		c0.7-0.6,0.8-1.7,0.2-2.4c-0.1-0.1-7.9-10-11.3-14.3c3.2-5.7,11.7-22.8,12.1-23.6C81.6,17.9,81.4,17,80.8,16.5z M65.5,41.5
		c-0.4,0.6-0.3,1.5,0.1,2c2.2,2.7,8.5,10.7,11,13.9L56.3,74.9c3.2-6.2,7.2-14.1,8.6-16.4c0.4-0.6,0.3-1.4-0.1-2
		c-1.2-1.5-8.3-10.5-11-13.9L74.1,25C71,31.2,66.9,39.2,65.5,41.5z"/>
	<path d="M19.2,83.5c0.3,0.2,0.7,0.4,1.1,0.4c0.4,0,0.8-0.1,1.2-0.4L49.9,59c0.7-0.6,0.8-1.7,0.2-2.4c-0.1-0.1-7.9-10-11.3-14.3
		c3.2-5.7,11.7-22.8,12.1-23.6c0.4-0.8,0.2-1.7-0.5-2.2s-1.6-0.5-2.2,0.1L19.7,41c-0.7,0.6-0.8,1.7-0.2,2.4c0,0,8.5,10.7,11.4,14.3
		c-3.1,5.6-11.7,22.7-12.1,23.5C18.4,82.1,18.6,83,19.2,83.5z M34.5,58.6c0.4-0.6,0.3-1.4-0.1-2c-1.2-1.5-8.3-10.5-11-13.9L43.7,25
		c-3.1,6.2-7.2,14.2-8.6,16.5c-0.4,0.6-0.3,1.5,0.1,2c2.2,2.7,8.5,10.7,11,13.9L25.9,74.9C29.1,68.7,33.2,60.8,34.5,58.6z"/>
</g>
</svg>
