<?xml version="1.0" encoding="utf-8"?>
<!-- Generator: Adobe Illustrator 21.1.0, SVG Export Plug-In . SVG Version: 6.00 Build 0)  -->
<svg version="1.1" id="Layer_1" xmlns="http://www.w3.org/2000/svg" xmlns:xlink="http://www.w3.org/1999/xlink" x="0px" y="0px"
	 viewBox="0 0 100 125" style="enable-background:new 0 0 100 125;" xml:space="preserve">
<path d="M5,93.1h11.2V95H5V93.1z"/>
<path d="M5,89.4h11.2v1.9H5V89.4z"/>
<path d="M5,85.6h11.2v1.9H5V85.6z"/>
<path d="M5,81.9h11.2v1.9H5V81.9z"/>
<path d="M5,78.1h11.2V80H5V78.1z"/>
<path d="M5,74.4h11.2v1.9H5V74.4z"/>
<path d="M5,70.6h11.2v1.9H5V70.6z"/>
<path d="M5,66.9h11.2v1.9H5V66.9z"/>
<path d="M5,63.1h11.2V65H5V63.1z"/>
<path d="M5,59.4h11.2v1.9H5V59.4z"/>
<path d="M5,55.6h11.2v1.9H5V55.6z"/>
<path d="M5,51.9h11.2v1.9H5V51.9z"/>
<path d="M18.1,93.1h11.2V95H18.1V93.1z"/>
<path d="M18.1,89.4h11.2v1.9H18.1V89.4z"/>
<path d="M18.1,85.6h11.2v1.9H18.1V85.6z"/>
<path d="M18.1,81.9h11.2v1.9H18.1V81.9z"/>
<path d="M18.1,78.1h11.2V80H18.1V78.1z"/>
<path d="M18.1,74.4h11.2v1.9H18.1V74.4z"/>
<path d="M18.1,70.6h11.2v1.9H18.1V70.6z"/>
<path d="M18.1,66.9h11.2v1.9H18.1V66.9z"/>
<path d="M18.1,63.1h11.2V65H18.1V63.1z"/>
<path d="M18.1,59.4h11.2v1.9H18.1V59.4z"/>
<path d="M31.2,93.1h11.2V95H31.2V93.1z"/>
<path d="M31.2,89.4h11.2v1.9H31.2V89.4z"/>
<path d="M31.2,85.6h11.2v1.9H31.2V85.6z"/>
<path d="M31.2,81.9h11.2v1.9H31.2V81.9z"/>
<path d="M31.2,78.1h11.2V80H31.2V78.1z"/>
<path d="M31.2,74.4h11.2v1.9H31.2V74.4z"/>
<path d="M31.2,70.6h11.2v1.9H31.2V70.6z"/>
<path d="M31.2,66.9h11.2v1.9H31.2V66.9z"/>
<path d="M31.2,63.1h11.2V65H31.2V63.1z"/>
<path d="M31.2,59.4h11.2v1.9H31.2V59.4z"/>
<path d="M44.4,93.1h11.2V95H44.4V93.1z"/>
<path d="M44.4,89.4h11.2v1.9H44.4V89.4z"/>
<path d="M44.4,85.6h11.2v1.9H44.4V85.6z"/>
<path d="M44.4,81.9h11.2v1.9H44.4V81.9z"/>
<path d="M44.4,78.1h11.2V80H44.4V78.1z"/>
<path d="M44.4,74.4h11.2v1.9H44.4V74.4z"/>
<path d="M44.4,70.6h11.2v1.9H44.4V70.6z"/>
<path d="M44.4,66.9h11.2v1.9H44.4V66.9z"/>
<path d="M44.4,63.1h11.2V65H44.4V63.1z"/>
<path d="M44.4,59.4h11.2v1.9H44.4V59.4z"/>
<path d="M31.2,55.6h11.2v1.9H31.2V55.6z"/>
<path d="M31.2,51.9h11.2v1.9H31.2V51.9z"/>
<path d="M31.2,48.1h11.2V50H31.2V48.1z"/>
<path d="M31.2,44.4h11.2v1.9H31.2V44.4z"/>
<path d="M44.4,55.6h11.2v1.9H44.4V55.6z"/>
<path d="M44.4,51.9h11.2v1.9H44.4V51.9z"/>
<path d="M44.4,48.1h11.2V50H44.4V48.1z"/>
<path d="M44.4,44.4h11.2v1.9H44.4V44.4z"/>
<path d="M44.4,40.6h11.2v1.9H44.4V40.6z"/>
<path d="M44.4,36.9h11.2v1.9H44.4V36.9z"/>
<path d="M44.4,33.1h11.2V35H44.4V33.1z"/>
<path d="M44.4,29.4h11.2v1.9H44.4V29.4z"/>
<path d="M44.4,25.6h11.2v1.9H44.4V25.6z"/>
<path d="M57.5,93.1h11.2V95H57.5V93.1z"/>
<path d="M57.5,89.4h11.2v1.9H57.5V89.4z"/>
<path d="M57.5,85.6h11.2v1.9H57.5V85.6z"/>
<path d="M57.5,81.9h11.2v1.9H57.5V81.9z"/>
<path d="M57.5,78.1h11.2V80H57.5V78.1z"/>
<path d="M57.5,74.4h11.2v1.9H57.5V74.4z"/>
<path d="M57.5,70.6h11.2v1.9H57.5V70.6z"/>
<path d="M57.5,66.9h11.2v1.9H57.5V66.9z"/>
<path d="M57.5,63.1h11.2V65H57.5V63.1z"/>
<path d="M57.5,59.4h11.2v1.9H57.5V59.4z"/>
<path d="M70.6,93.1h11.2V95H70.6V93.1z"/>
<path d="M70.6,89.4h11.2v1.9H70.6V89.4z"/>
<path d="M70.6,85.6h11.2v1.9H70.6V85.6z"/>
<path d="M70.6,81.9h11.2v1.9H70.6V81.9z"/>
<path d="M70.6,78.1h11.2V80H70.6V78.1z"/>
<path d="M70.6,74.4h11.2v1.9H70.6V74.4z"/>
<path d="M70.6,70.6h11.2v1.9H70.6V70.6z"/>
<path d="M70.6,66.9h11.2v1.9H70.6V66.9z"/>
<path d="M70.6,63.1h11.2V65H70.6V63.1z"/>
<path d="M70.6,59.4h11.2v1.9H70.6V59.4z"/>
<path d="M57.5,55.6h11.2v1.9H57.5V55.6z"/>
<path d="M57.5,51.9h11.2v1.9H57.5V51.9z"/>
<path d="M70.6,55.6h11.2v1.9H70.6V55.6z"/>
<path d="M70.6,51.9h11.2v1.9H70.6V51.9z"/>
<path d="M70.6,48.1h11.2V50H70.6V48.1z"/>
<path d="M70.6,44.4h11.2v1.9H70.6V44.4z"/>
<path d="M70.6,40.6h11.2v1.9H70.6V40.6z"/>
<path d="M83.8,93.1H95V95H83.8V93.1z"/>
<path d="M83.8,89.4H95v1.9H83.8V89.4z"/>
<path d="M83.8,85.6H95v1.9H83.8V85.6z"/>
<path d="M83.8,81.9H95v1.9H83.8V81.9z"/>
<path d="M83.8,78.1H95V80H83.8V78.1z"/>
<path d="M83.8,74.4H95v1.9H83.8V74.4z"/>
<path d="M83.8,70.6H95v1.9H83.8V70.6z"/>
<path d="M83.8,66.9H95v1.9H83.8V66.9z"/>
<path d="M83.8,63.1H95V65H83.8V63.1z"/>
</svg>
