<?xml version="1.0" encoding="utf-8"?>
<!-- Generator: Adobe Illustrator 21.1.0, SVG Export Plug-In . SVG Version: 6.00 Build 0)  -->
<svg version="1.1" id="Layer_1" xmlns="http://www.w3.org/2000/svg" xmlns:xlink="http://www.w3.org/1999/xlink" x="0px" y="0px"
	 viewBox="0 0 100 125" style="enable-background:new 0 0 100 125;" xml:space="preserve">
<style type="text/css">
	.st0{fill:none;}
	.st1{fill:none;stroke:#000000;stroke-width:2.6014;stroke-linecap:round;stroke-miterlimit:10;}
</style>
<g>
	<g>
		<g>
			<path d="M71.9,95.5c-0.7,0-1.3-0.6-1.3-1.3l0-58.6c0-0.7,0.6-1.3,1.3-1.3h0c0.7,0,1.3,0.6,1.3,1.3l0,58.6
				C73.2,94.9,72.6,95.5,71.9,95.5L71.9,95.5z"/>
		</g>
		<g>
			<path d="M75.2,95.5c-0.7,0-1.3-0.6-1.3-1.3v-2.1c0-0.7,0.6-1.3,1.3-1.3s1.3,0.6,1.3,1.3v2.1C76.6,94.9,76,95.5,75.2,95.5z"/>
		</g>
		<g>
			<path d="M78.6,95.5c-0.7,0-1.3-0.6-1.3-1.3V80.4c0-0.7,0.6-1.3,1.3-1.3s1.3,0.6,1.3,1.3v13.8C79.9,94.9,79.3,95.5,78.6,95.5z"/>
		</g>
		<g>
			<path d="M81.9,95.5c-0.7,0-1.3-0.6-1.3-1.3v-2.5c0-0.7,0.6-1.3,1.3-1.3s1.3,0.6,1.3,1.3v2.5C83.2,94.9,82.6,95.5,81.9,95.5z"/>
		</g>
		<g>
			<g>
				<line class="st0" x1="5.9" y1="4.7" x2="5.9" y2="94.7"/>
				<path d="M5.9,96.4c-0.9,0-1.7-0.8-1.7-1.7V4.7C4.2,3.7,5,3,5.9,3s1.7,0.8,1.7,1.7v90.1C7.6,95.7,6.8,96.4,5.9,96.4z"/>
			</g>
			<g>
				<line class="st0" x1="94.1" y1="94.7" x2="5.9" y2="94.7"/>
				<path d="M94.1,96.4H5.9c-0.9,0-1.7-0.8-1.7-1.7s0.8-1.7,1.7-1.7h88.2c0.9,0,1.7,0.8,1.7,1.7S95,96.4,94.1,96.4z"/>
			</g>
			<g>
				<line class="st0" x1="15" y1="23" x2="15" y2="94.2"/>
			</g>
			<g>
				<path class="st1" d="M25.5,95.3"/>
			</g>
			<g>
				<path d="M11.6,95.5c-0.7,0-1.3-0.6-1.3-1.3v-5c0-0.7,0.6-1.3,1.3-1.3s1.3,0.6,1.3,1.3v5C12.9,94.9,12.4,95.5,11.6,95.5z"/>
			</g>
			<g>
				<path d="M15,95.5c-0.7,0-1.3-0.6-1.3-1.3v-2.5c0-0.7,0.6-1.3,1.3-1.3s1.3,0.6,1.3,1.3v2.5C16.3,94.9,15.7,95.5,15,95.5z"/>
			</g>
			<g>
				<path d="M18.3,95.5c-0.7,0-1.3-0.6-1.3-1.3V58.6c0-0.7,0.6-1.3,1.3-1.3s1.3,0.6,1.3,1.3v35.6C19.6,94.9,19.1,95.5,18.3,95.5z"/>
			</g>
			<g>
				<path d="M21.7,95.5c-0.7,0-1.3-0.6-1.3-1.3V42.7c0-0.7,0.6-1.3,1.3-1.3S23,42,23,42.7v51.5C23,94.9,22.4,95.5,21.7,95.5z"/>
			</g>
			<g>
				<path d="M25,95.5c-0.7,0-1.3-0.6-1.3-1.3v-8.9c0-0.7,0.6-1.3,1.3-1.3s1.3,0.6,1.3,1.3v8.9C26.3,94.9,25.8,95.5,25,95.5z"/>
			</g>
			<g>
				<path d="M28.4,95.5c-0.7,0-1.3-0.6-1.3-1.3v-8.8c0-0.7,0.6-1.3,1.3-1.3s1.3,0.6,1.3,1.3v8.8C29.7,94.9,29.1,95.5,28.4,95.5z"/>
			</g>
			<g>
				<path d="M31.7,95.5c-0.7,0-1.3-0.6-1.3-1.3v-4.4c0-0.7,0.6-1.3,1.3-1.3s1.3,0.6,1.3,1.3v4.4C33,94.9,32.5,95.5,31.7,95.5z"/>
			</g>
			<g>
				<path d="M35.1,95.5c-0.7,0-1.3-0.6-1.3-1.3v-4.4c0-0.7,0.6-1.3,1.3-1.3s1.3,0.6,1.3,1.3v4.4C36.4,94.9,35.8,95.5,35.1,95.5z"/>
			</g>
			<g>
				<path d="M38.4,95.5c-0.7,0-1.3-0.6-1.3-1.3v-2.5c0-0.7,0.6-1.3,1.3-1.3s1.3,0.6,1.3,1.3v2.5C39.7,94.9,39.2,95.5,38.4,95.5z"/>
			</g>
			<g>
				<path d="M41.8,95.5c-0.7,0-1.3-0.6-1.3-1.3v-4.4c0-0.7,0.6-1.3,1.3-1.3s1.3,0.6,1.3,1.3v4.4C43.1,94.9,42.5,95.5,41.8,95.5z"/>
			</g>
			<g>
				<path d="M45.2,95.5c-0.7,0-1.3-0.6-1.3-1.3V12.5c0-0.7,0.6-1.3,1.3-1.3s1.3,0.6,1.3,1.3v81.7C46.5,94.9,45.9,95.5,45.2,95.5z"/>
			</g>
			<g>
				<path d="M48.6,95.5c-0.7,0-1.3-0.6-1.3-1.3l0-3.5c0-0.7,0.6-1.3,1.3-1.3c0.7,0,1.3,0.6,1.3,1.3l0,3.5
					C49.9,94.9,49.3,95.5,48.6,95.5C48.6,95.5,48.6,95.5,48.6,95.5z"/>
			</g>
			<g>
				<path d="M51.9,95.5c-0.7,0-1.3-0.6-1.3-1.3V36.4c0-0.7,0.6-1.3,1.3-1.3c0.7,0,1.3,0.6,1.3,1.3v57.8
					C53.2,94.9,52.6,95.5,51.9,95.5z"/>
			</g>
			<g>
				<path d="M55.3,95.5c-0.7,0-1.3-0.6-1.3-1.3V80.4c0-0.7,0.6-1.3,1.3-1.3s1.3,0.6,1.3,1.3v13.8C56.6,94.9,56,95.5,55.3,95.5z"/>
			</g>
			<g>
				<path d="M65.2,95.5c-0.7,0-1.3-0.6-1.3-1.3v-4.4c0-0.7,0.6-1.3,1.3-1.3s1.3,0.6,1.3,1.3v4.4C66.5,94.9,66,95.5,65.2,95.5z"/>
			</g>
			<g>
				<path d="M58.5,95.5c-0.7,0-1.3-0.6-1.3-1.3v-2.5c0-0.7,0.6-1.3,1.3-1.3s1.3,0.6,1.3,1.3v2.5C59.8,94.9,59.3,95.5,58.5,95.5z"/>
			</g>
			<g>
				<path d="M68.6,95.5c-0.7,0-1.3-0.6-1.3-1.3V61.6c0-0.7,0.6-1.3,1.3-1.3s1.3,0.6,1.3,1.3v32.6C69.9,94.9,69.3,95.5,68.6,95.5z"/>
			</g>
			<g>
				<path d="M61.9,95.5c-0.7,0-1.3-0.6-1.3-1.3v-2.5c0-0.7,0.6-1.3,1.3-1.3s1.3,0.6,1.3,1.3v2.5C63.2,94.9,62.6,95.5,61.9,95.5z"/>
			</g>
		</g>
	</g>
</g>
</svg>
