<?xml version="1.0" encoding="utf-8"?>
<!-- Generator: Adobe Illustrator 21.1.0, SVG Export Plug-In . SVG Version: 6.00 Build 0)  -->
<svg version="1.1" id="Layer_1" xmlns="http://www.w3.org/2000/svg" xmlns:xlink="http://www.w3.org/1999/xlink" x="0px" y="0px"
	 viewBox="0 0 100 125" style="enable-background:new 0 0 100 125;" xml:space="preserve">
<path d="M61.8,50.5c2.1,0,1.5,20.7,3.7,20.7c2.2,0,1.3-11.6,4.1-11.6c2.8,0,2.1,20.3,4.6,20.3s2.7-25,5.3-25
	c2.6,0,1.9,10.8,4.3,10.8s2.1-15.3,6.1-15.4c0.3,0,0.7,0,1,0c2.4-0.1,3.8-0.1,3.8-0.1c0.2,0,0.3-0.1,0.3-0.1c0-0.1-0.1-0.2-0.3-0.2
	c0,0-1.4-0.1-3.8-0.1c-0.3,0-0.6,0-0.9,0c-4,0-3.8-15.5-6.1-15.5c-2.4,0-1.7,10.8-4.3,10.8c-2.6,0-2.7-25-5.3-25
	c-2.5,0-1.8,20.3-4.6,20.3c-2.8,0-1.9-11.6-4.1-11.6c-2.2,0-1.7,20.7-3.7,20.7c-3.4,0-3.2-12.8-5.1-12.8c-2,0-1.4,12.6-3.5,12.7
	c-1.1,0-5.1,0-5.1,0c-3.6,0-3.9-20-5.9-20s-1.9,8.2-4,8.2s-2-19.5-4.2-19.5s-1.3,9.5-4.1,9.5S27.9,8.4,25.3,8.4
	c-2.5,0-2.7,33.5-5.3,33.5s-1.4-16.2-3.8-16.2s-2.1,23.9-6.1,24c-0.3,0-0.6,0-0.9,0c-2.4,0.1-3.8,0.1-3.8,0.1C5.2,49.8,5,49.9,5,50
	s0.1,0.2,0.3,0.2c0,0,1.4,0.1,3.8,0.1c0.3,0,0.6,0,1,0c4,0.1,3.7,24,6.1,24s1.2-16.2,3.8-16.2s2.7,33.5,5.3,33.5
	c2.5,0,1.8-19.3,4.6-19.3s1.9,9.5,4.1,9.5s2.1-19.5,4.2-19.5c2.1,0,2,8.2,4,8.2s2.3-20,5.9-20c0.6,0,4.1,0,5.1,0
	c2.1,0.2,1.5,12.7,3.5,12.7C58.7,63.3,58.5,50.5,61.8,50.5z"/>
</svg>
